<svg width="390" height="461" viewBox="0 0 390 461" fill="none" xmlns="http://www.w3.org/2000/svg">
<path d="M31 78.5L30.7207 77.5398L31 78.5ZM111 58.5L111.345 59.4386L111 58.5ZM174 33L174.361 32.0674L174 33ZM254.5 33L253.704 32.3949L254.5 33ZM270.667 23.5C270.667 26.4455 273.054 28.8333 276 28.8333C278.946 28.8333 281.333 26.4455 281.333 23.5C281.333 20.5545 278.946 18.1667 276 18.1667C273.054 18.1667 270.667 20.5545 270.667 23.5ZM3.36892 109.495C5.275 106.149 6.6403 102.945 7.93932 99.9811C9.24574 97.0006 10.4808 94.274 12.1457 91.7655C15.4268 86.822 20.4572 82.6084 31.2793 79.4602L30.7207 77.5398C19.5428 80.7916 14.0732 85.2447 10.4793 90.6595C8.70674 93.3302 7.41051 96.2056 6.10756 99.1782C4.7972 102.168 3.475 105.268 1.63108 108.505L3.36892 109.495ZM111.345 59.4386C128.555 53.1115 136.746 43.556 144.263 37.3328C148.025 34.2183 151.584 31.9545 156.038 31.1481C160.496 30.3409 165.988 30.9708 173.639 33.9326L174.361 32.0674C166.512 29.0292 160.629 28.2841 155.681 29.1801C150.729 30.0768 146.85 32.5942 142.987 35.7922C135.254 42.194 127.445 51.3885 110.655 57.5614L111.345 59.4386ZM255.296 33.6051C262.626 23.9604 272.099 23.5554 275.757 24.4701L276.243 22.5298C271.901 21.4446 261.574 22.0396 253.704 32.3949L255.296 33.6051ZM173.639 33.9326C176.439 35.0163 179.376 36.719 182.499 38.5683C185.596 40.4016 188.865 42.372 192.234 43.9009C199.005 46.9739 206.391 48.3529 214.048 43.3365L212.952 41.6635C206.109 46.1471 199.524 45.0132 193.06 42.0797C189.811 40.6053 186.646 38.6991 183.518 36.8473C180.418 35.0116 177.34 33.2207 174.361 32.0674L173.639 33.9326ZM214.048 43.3365C221.029 38.7628 229.508 38.3353 237.23 38.1269C241.041 38.0241 244.71 37.9724 247.789 37.4412C250.87 36.9097 253.578 35.8659 255.296 33.6051L253.704 32.3949C252.443 34.0539 250.349 34.9699 247.449 35.4703C244.548 35.9708 241.059 36.0229 237.176 36.1277C229.513 36.3344 220.471 36.7372 212.952 41.6635L214.048 43.3365ZM31.2793 79.4602C36.4366 77.9599 40.6302 78.8744 45.5543 78.9995C50.461 79.1242 55.6457 78.3801 62.1115 73.3833L60.8885 71.8008C54.8543 76.464 50.1453 77.1156 45.6051 77.0002C41.0824 76.8852 36.276 75.9237 30.7207 77.5398L31.2793 79.4602ZM62.1115 73.3833C69.4073 67.745 76.3884 66.162 84.2321 65.0506C92.0747 63.9393 100.84 63.3006 111.345 59.4386L110.655 57.5614C100.404 61.3301 91.92 61.9413 83.9515 63.0704C75.984 64.1993 68.5927 65.847 60.8885 71.8008L62.1115 73.3833Z" fill="#F7274C"/>
<path d="M7.10139 99.0762C14.2306 92.757 23.4035 86.8604 30.5 91C40.1 96.6 38 105.5 57 100C79 91 79 76.5 96.5 76.5C107.207 76.5 115.528 77.2177 121.979 78.2778C134.767 80.3794 152.466 81.1392 162.744 73.2439C163.476 72.6815 164.228 72.1003 165 71.5C179.015 60.5993 196.842 76.3323 205.5 79.5C225.703 86.8913 255.132 97.1963 270.338 77.3932C270.785 76.8119 271.182 76.1824 271.604 75.583C274.449 71.5392 287.736 55.5 319.5 55.5C350 55.4999 376.5 8.49997 383 13.5C387.517 16.9746 388.84 21.0781 389 19.9111V18.9999C389.022 19.4377 389.024 19.7346 389 19.9111V437.5C389 450.203 378.703 460.5 366 460.5H23.5C10.7975 460.5 0.5 450.203 0.5 437.5V114.715C0.5 108.8 2.67504 103 7.10139 99.0762Z" fill="url(#paint0_linear_0_1)"/>
<rect x="288.332" y="2.86102e-06" width="41.6678" height="19.3703" rx="9.68516" fill="#FF5775"/>
<path d="M310.415 16.1136C310.947 16.656 310.615 17.5837 309.827 17.7591L292.585 21.5963C291.817 21.767 291.19 21.0936 291.447 20.3754L297.064 4.67448C297.321 3.95624 298.273 3.72207 298.79 4.24991L310.415 16.1136Z" fill="#FF5775"/>
<path d="M298.228 11.0696C297.853 11.0696 297.534 10.9677 297.271 10.7638C297.007 10.5584 296.806 10.2609 296.667 9.87145C296.528 9.48035 296.458 9.00805 296.458 8.45455C296.458 7.90436 296.528 7.43454 296.667 7.0451C296.808 6.654 297.01 6.35571 297.273 6.15021C297.539 5.94306 297.857 5.83949 298.228 5.83949C298.599 5.83949 298.917 5.94306 299.18 6.15021C299.445 6.35571 299.647 6.654 299.787 7.0451C299.927 7.43454 299.998 7.90436 299.998 8.45455C299.998 9.00805 299.928 9.48035 299.789 9.87145C299.65 10.2609 299.449 10.5584 299.185 10.7638C298.922 10.9677 298.603 11.0696 298.228 11.0696ZM298.228 10.5227C298.599 10.5227 298.888 10.3437 299.093 9.9858C299.299 9.62784 299.401 9.11742 299.401 8.45455C299.401 8.01373 299.354 7.63838 299.26 7.32848C299.167 7.01858 299.033 6.78243 298.857 6.62003C298.683 6.45762 298.473 6.37642 298.228 6.37642C297.86 6.37642 297.573 6.55788 297.365 6.92081C297.158 7.28208 297.055 7.79332 297.055 8.45455C297.055 8.89536 297.101 9.26989 297.194 9.57812C297.287 9.88636 297.42 10.1209 297.594 10.2816C297.77 10.4424 297.981 10.5227 298.228 10.5227ZM301.272 11.0398C301.15 11.0398 301.044 10.9959 300.957 10.908C300.869 10.8202 300.825 10.715 300.825 10.5923C300.825 10.4697 300.869 10.3645 300.957 10.2766C301.044 10.1888 301.15 10.1449 301.272 10.1449C301.395 10.1449 301.5 10.1888 301.588 10.2766C301.676 10.3645 301.72 10.4697 301.72 10.5923C301.72 10.6735 301.699 10.7481 301.658 10.8161C301.618 10.884 301.564 10.9387 301.496 10.9801C301.43 11.0199 301.355 11.0398 301.272 11.0398ZM302.889 11L305.166 6.49574V6.45597H302.541V5.90909H305.802V6.4858L303.535 11H302.889ZM309.394 10.0455V9.77699C309.394 9.59138 309.432 9.42152 309.508 9.2674C309.586 9.11162 309.699 8.98733 309.847 8.89453C309.996 8.80007 310.176 8.75284 310.388 8.75284C310.604 8.75284 310.785 8.80007 310.93 8.89453C311.076 8.98733 311.186 9.11162 311.261 9.2674C311.336 9.42152 311.373 9.59138 311.373 9.77699V10.0455C311.373 10.2311 311.335 10.4018 311.258 10.5575C311.184 10.7116 311.073 10.8359 310.925 10.9304C310.78 11.0232 310.601 11.0696 310.388 11.0696C310.173 11.0696 309.992 11.0232 309.844 10.9304C309.697 10.8359 309.585 10.7116 309.508 10.5575C309.432 10.4018 309.394 10.2311 309.394 10.0455ZM309.901 9.77699V10.0455C309.901 10.1996 309.938 10.3379 310.011 10.4606C310.084 10.5816 310.209 10.642 310.388 10.642C310.562 10.642 310.685 10.5816 310.756 10.4606C310.829 10.3379 310.866 10.1996 310.866 10.0455V9.77699C310.866 9.62287 310.831 9.48532 310.761 9.36435C310.692 9.24171 310.567 9.1804 310.388 9.1804C310.214 9.1804 310.089 9.24171 310.013 9.36435C309.939 9.48532 309.901 9.62287 309.901 9.77699ZM306.859 7.1321V6.86364C306.859 6.67803 306.897 6.50817 306.973 6.35405C307.051 6.19827 307.164 6.07398 307.311 5.98118C307.46 5.88672 307.641 5.83949 307.853 5.83949C308.068 5.83949 308.249 5.88672 308.395 5.98118C308.541 6.07398 308.651 6.19827 308.725 6.35405C308.8 6.50817 308.837 6.67803 308.837 6.86364V7.1321C308.837 7.31771 308.799 7.4884 308.723 7.64418C308.648 7.7983 308.537 7.92259 308.39 8.01705C308.244 8.10985 308.065 8.15625 307.853 8.15625C307.638 8.15625 307.456 8.10985 307.309 8.01705C307.161 7.92259 307.049 7.7983 306.973 7.64418C306.897 7.4884 306.859 7.31771 306.859 7.1321ZM307.366 6.86364V7.1321C307.366 7.28622 307.402 7.4246 307.475 7.54723C307.548 7.66821 307.674 7.72869 307.853 7.72869C308.027 7.72869 308.15 7.66821 308.221 7.54723C308.294 7.4246 308.33 7.28622 308.33 7.1321V6.86364C308.33 6.70952 308.295 6.57197 308.226 6.45099C308.156 6.32836 308.032 6.26705 307.853 6.26705C307.679 6.26705 307.554 6.32836 307.478 6.45099C307.403 6.57197 307.366 6.70952 307.366 6.86364ZM307.048 11L310.548 5.90909H311.114L307.614 11H307.048Z" fill="white"/>
<defs>
<linearGradient id="paint0_linear_0_1" x1="40.5" y1="20" x2="328" y2="619.5" gradientUnits="userSpaceOnUse">
<stop offset="0.125" stop-color="#FF5473"/>
<stop offset="1" stop-color="#EDE8E8"/>
</linearGradient>
</defs>
</svg>
